<svg width="29" height="29" xmlns="http://www.w3.org/2000/svg" xmlns:xlink="http://www.w3.org/1999/xlink" xml:space="preserve" overflow="hidden"><defs><clipPath id="clip0"><rect x="572" y="214" width="29" height="29"/></clipPath></defs><g clip-path="url(#clip0)" transform="translate(-572 -214)"><path d="M593.83 224.309C593.732 224.095 593.517 223.958 593.282 223.958L589.361 223.958 592.529 216.037C592.653 215.727 592.502 215.375 592.192 215.251 592.121 215.223 592.045 215.208 591.968 215.208L582.344 215.208C582.081 215.208 581.849 215.378 581.769 215.628L577.831 227.878C577.731 228.196 577.908 228.535 578.226 228.635 578.284 228.654 578.345 228.663 578.407 228.663L582.639 228.663 580.007 239.292C579.927 239.616 580.124 239.944 580.448 240.024 580.67 240.079 580.904 240.004 581.053 239.83L593.74 224.955C593.894 224.776 593.929 224.523 593.83 224.309Z" fill="#F0B400"/><path d="M582.513 241.792C582.179 241.791 581.909 241.521 581.909 241.187 581.909 241.043 581.96 240.905 582.053 240.795L594.741 225.92C594.958 225.666 595.339 225.636 595.593 225.853 595.847 226.07 595.877 226.451 595.66 226.705L582.972 241.58C582.857 241.715 582.689 241.792 582.513 241.792ZM591.938 222.854C591.858 222.854 591.779 222.838 591.705 222.808 591.397 222.679 591.252 222.326 591.38 222.018L593.327 217.33C593.445 217.018 593.794 216.86 594.106 216.978 594.418 217.096 594.575 217.445 594.458 217.757 594.453 217.77 594.447 217.782 594.442 217.795L592.49 222.482C592.396 222.708 592.177 222.854 591.933 222.854Z" fill="#F0B400"/></g></svg>